<?xml version="1.0" standalone="no"?>
<!DOCTYPE svg PUBLIC "-//W3C//DTD SVG 20010904//EN"
 "http://www.w3.org/TR/2001/REC-SVG-20010904/DTD/svg10.dtd">
<svg version="1.0" xmlns="http://www.w3.org/2000/svg"
 width="223.000000pt" height="170.000000pt" viewBox="0 0 223.000000 170.000000"
 preserveAspectRatio="xMidYMid meet">

<g transform="translate(0.000000,170.000000) scale(0.100000,-0.100000)"
fill="#C61717" stroke="none">
<path d="M0 850 l0 -850 1115 0 1115 0 0 850 0 850 -1115 0 -1115 0 0 -850z
m1152 738 c21 -17 59 -79 218 -355 73 -128 136 -233 139 -233 4 0 112 36 240
80 128 44 248 80 267 80 70 0 110 -85 66 -140 -13 -16 -85 -46 -247 -101 -125
-43 -230 -80 -232 -82 -2 -2 78 -145 177 -318 118 -206 180 -323 180 -342 0
-39 -49 -87 -89 -87 -17 0 -41 10 -55 23 -14 12 -103 157 -197 322 -94 165
-177 310 -185 322 l-14 22 -155 -55 c-86 -30 -172 -54 -191 -54 -47 0 -84 37
-84 83 0 62 26 81 183 133 78 25 145 48 149 50 3 3 -43 92 -105 199 -94 165
-112 192 -122 177 -7 -9 -137 -235 -290 -502 -371 -648 -399 -694 -430 -708
-41 -19 -64 -14 -96 17 -43 43 -39 76 26 188 30 53 55 100 55 104 0 5 -37 -5
-82 -22 -58 -21 -93 -28 -115 -24 -67 12 -96 99 -49 146 16 16 84 44 207 84
181 59 183 60 209 102 15 23 130 222 256 443 126 221 241 415 256 431 29 32
81 40 110 17z"/>
</g>
</svg>
