<?xml version="1.0" standalone="no"?>
<!DOCTYPE svg PUBLIC "-//W3C//DTD SVG 20010904//EN"
 "http://www.w3.org/TR/2001/REC-SVG-20010904/DTD/svg10.dtd">
<svg version="1.0" xmlns="http://www.w3.org/2000/svg"
 width="238.000000pt" height="167.000000pt" viewBox="0 0 238.000000 167.000000"
 preserveAspectRatio="xMidYMid meet">

<g transform="translate(0.000000,167.000000) scale(0.100000,-0.100000)"
fill="#002a5c" stroke="none">
<path d="M645 1639 c-311 -46 -592 -292 -625 -549 -5 -41 -10 -299 -10 -572
l0 -498 315 0 314 0 3 481 3 481 28 24 c39 34 115 34 154 0 l28 -24 3 -481 3
-481 324 0 325 0 0 476 0 476 29 29 c51 51 159 37 181 -24 6 -19 10 -196 10
-493 l0 -464 316 0 315 0 -3 547 c-4 628 -2 613 -99 757 -142 213 -400 338
-664 323 -121 -7 -213 -36 -325 -101 l-81 -47 -67 40 c-93 56 -186 88 -283
101 -93 11 -109 11 -194 -1z"/>
</g>
</svg>
