<svg xmlns="http://www.w3.org/2000/svg" width="144" height="112" viewBox="7 5 58 45"><path fill="#101f3a" d="M63.3002 27.8808c0 15.003-12.163 27.166-27.166 27.166s-27.166-12.163-27.166-27.166S21.1312.7148 36.1342.7148s27.166 12.163 27.166 27.166"/><path fill="#2cb9f1" d="M18.0814 27.8808c0-9.97 8.083-18.053 18.053-18.053s18.053 8.083 18.053 18.053c0 9.971-8.083 18.053-18.053 18.053s-18.053-8.082-18.053-18.053"/><path fill="#dfe0d8" d="M62.763 28c0 14.757-12.006 26.763-26.763 26.763C21.242 54.763 9.236 42.757 9.236 28c0-.892.044-1.774.13-2.644h.601c.375.932 1.239 1.367 2.708 1.367.929 0 1.681-.072 2.374-.187.311.769 1.699.982 2.577 1.062-.003.134-.005.268-.005.402 0 1.674.225 3.296.646 4.838-.566.269-.95.912-.95 1.682 0 .513.143.926.424 1.227.03.277.163.515.386.692.052.533.649 1.258 1.867 1.258.131 0 .257-.015.373-.042 3.243 5.232 9.038 8.723 15.633 8.723 6.998 0 13.096-3.932 16.199-9.703.162-.014.319-.029.47-.045.18-.018.353-.036.522-.048.23-.017.466-.065.693-.112.281-.058.546-.113.801-.113.426 0 .645.219.877.45.221.219.448.446.835.446.029 0 .056-.002.084-.005.191.208.562.225.823-.03.567-.553 1.148-1.24 1.148-2.141 0-1.064-.724-1.662-1.751-2.382l-.026-.054c-.097-.201-.217-.45-.677-.848-.572-.495-1.14-.808-1.818-1.095.13-.881.198-1.781.198-2.698 0-.431-.015-.859-.044-1.283 1.205-.803 2.395-1.601 2.658-1.786 1.069-.755 1.24-1.26 1.615-2.366.064-.188.134-.396.216-.625.068-.191.069-.377.008-.516.773-.931 1.607-1.743 2.382-2.405 1.003 2.809 1.55 5.832 1.55 8.981m-13.54-8.866c-.201-.158-.436-.331-.925-.331-.256 0-.561.22-.952.697-.101-.012-.261-.028-.459-.028-.903 0-1.458.232-1.586.656-.418.028-1.198.129-1.524.501-.079.091-.128.192-.144.302-.503.047-1.602.224-1.602.858 0 .03.003.06.009.091-.327.077-.824.229-.978.558-.348.091-1.154.357-1.154.874v.016c-.092.022-.18.048-.262.079-.397-.457-1.567-1.898-1.567-1.898-3.469-4.247-4.608-4.929-12.603-4.929-.962 0-1.975.033-3.064.084 3.25-3.889 8.135-6.367 13.588-6.367 6.055 0 11.409 3.056 14.603 7.706-.611.058-1.149.691-1.38 1.131M21.661 37.953c.277 0 .759-.089 1.081-.233.49.037.776-.082 1.139-.23.372-.152.87-.356 1.836-.491-.046.116-.069.235-.069.355 0 .638.57 1.157 1.27 1.157.239 0 .552-.036.76-.059.087-.01.152-.018.176-.018l.172.001c.209.003.516.006.684-.002.194-.008.338-.062.477-.114.126-.048.246-.092.405-.102.154.145.427.167.611.159.203-.001.403-.023.564-.041.049-.005.095-.01.135-.014.093.147.249.222.464.222.004 0 .008 0 .012-.001.135-.001.281-.031.408-.058.104-.021.203-.042.276-.042.183-.002.407.006.664.012.328.008.704.018 1.089.018 1.146 0 1.562-.043 2.123-.216.115-.035.292-.063.524-.051.348.002.635.044.968.092.462.067.987.144 1.853.144 2.76 0 4.266-.283 6.761-.753.362-.068.745-.14 1.157-.215.13-.024.395-.077.73-.143.941-.187 2.516-.499 3.08-.567l.384-.03c-3.049 5.353-8.807 8.97-15.395 8.97-6.081 0-11.456-3.082-14.644-7.765.088.01.188.015.305.015M18.297 28c0-.123.001-.246.004-.368h.237c.118.002.204.001.279-.002-.002.161.047.308.146.434.228.292.695.447 1.351.447.21 0 .385-.005.53-.011.093.714.853 1.036 1.607 1.036.236 0 .454-.019.662-.059.18.813 1.382 1.037 2.031 1.039h.007c.27 0 .524-.059.724-.126-.003.031-.005.065-.005.102 0 .125.052.24.185.377-.478-.196-1.168-.355-1.563-.355-.495 0-.885.168-1.189.513-.3-.088-.571-.132-.805-.132-.536 0-.783.449-.932.733-.108-.003-.238-.01-.371-.017-.187-.01-.382-.02-.535-.02h-.004c-.527 0-1.093.082-1.345.67-.197.046-.339.126-.44.218-.375-1.431-.574-2.932-.574-4.479m35.405 0c0 .828-.057 1.643-.168 2.441-.107-.04-.218-.082-.332-.124-1.381-.512-2.057-.681-2.653-.83l-.06-.015c.112-.196.392-.489 1.046-.903.198-.126 1.116-.733 2.147-1.418.014.281.02.564.02.849M36 1.237c10.118 0 18.944 5.644 23.492 13.95-.312.161-.609.34-.883.523.121-.185.199-.354.199-.506 0-.248-.216-.499-.63-.499-.636 0-1.322.353-1.992 1.01.004-.026.006-.05.006-.075.001-.122-.044-.233-.124-.314-.084-.085-.203-.131-.336-.131-.678 0-1.328.375-1.825 1.03-.057-.166-.21-.258-.44-.258-.623 0-1.644.63-2.193 1.823C47.973 12.868 42.359 9.622 36 9.622c-5.881 0-11.125 2.776-14.491 7.086-.562.029-1.144.062-1.749.095-2.439.135-5.18.287-8.208.308C15.731 7.765 25.117 1.237 36 1.237m27.47 14.836c-.2-.044-.502-.111-.502-.204 0-.091.038-.138.118-.228.094-.104.222-.234.222-.437 0-.554-1.081-.653-1.574-.654-.517-.002-1.052.128-1.567.329C55.501 6.318 46.417.496 36 .496c-11.301 0-21.032 6.851-25.258 16.618-3.681-.015-6.68-.824-8.451-2.281-.18-.148-.441-.18-.65-.082-.222.105-.349.33-.349.617 0 1.069 1.908 3.069 4.232 4.092-1.423.229-2.69.341-3.857.341-.435 0-.695.227-.695.606 0 .926 1.654 1.528 2.522 1.694.385.704 1.207 1.176 2.385 1.369.326 1.041 1.35 1.727 2.745 1.862-.085.878-.129 1.768-.129 2.668 0 15.166 12.339 27.504 27.505 27.504 15.165 0 27.504-12.338 27.504-27.504 0-3.33-.595-6.522-1.684-9.479.805-.633 1.504-1.076 1.941-1.287.21-.102.436-.231.436-.591 0-.439-.386-.495-.727-.57m-7.256 25.471c-.236.021-.5-.043-.78-.195l-.075-.041.311-.544.072.035c.537.273.683.035.732-.042.181-.289-.101-.509-.23-.59-.2-.125-.482-.16-.813-.101l-.74.123c-.511.104-.895.058-1.213-.14-.247-.155-.414-.362-.482-.599-.074-.256-.025-.531.14-.796.217-.347.638-.673 1.413-.247l.075.042-.304.517-.069-.033c-.425-.201-.565-.097-.653.045-.059.095-.076.185-.051.268.028.09.104.175.227.252.2.126.493.09.803.04l.654-.108c.54-.102.95-.043 1.322.188.269.169.452.39.527.638.079.263.034.54-.131.805-.184.294-.437.456-.735.483m-1.509 2.494-3.424-2.739 1.149-1.438.456.363-.744.929.955.764.594-.745.46.368-.596.743 1.094.874.746-.932.463.37zm-2.474 2.507L49.2 43.376l.484-.462 2.499 1.237-1.812-1.895.43-.41 3.03 3.169-.428.409-2.731-1.376 1.992 2.083zM50.7 47.749l-.05-.066-2.61-3.419.523-.399.051.067 2.61 3.418zm-2.423 1.484c-.068.002-.134-.003-.199-.014-.269-.05-.5-.22-.666-.492l-1.259-2.065c-.33-.541-.17-1.138.399-1.484.528-.323 1.1-.219 1.389.255l.287.47-.522.318-.256-.42c-.066-.108-.154-.177-.256-.2-.104-.025-.223.001-.34.073-.32.196-.246.47-.127.665l1.229 2.015c.161.263.386.324.637.171s.299-.348.149-.595l-.45-.736-.474.289-.291-.476 1.012-.617.758 1.243c.152.248.195.511.128.76-.068.251-.247.471-.518.636-.212.129-.427.199-.63.204m-3.535 1.794L43.012 47l.614-.265 1.909 2.033-1.035-2.409.545-.234 1.73 4.028-.544.234-.04-.043-2.036-2.2 1.137 2.647zm-2.822.862-.023-.081-1.165-4.14 1.772-.499.157.56-1.144.323.331 1.176.917-.258.159.565-.916.258.379 1.348 1.15-.324.161.571zm-4.265.649-.009-.084-.422-4.281 1.833-.18.057.578-1.184.116.121 1.218.947-.094.058.585-.948.093.137 1.394 1.19-.117.058.59zm-2.309.045L35.28 48.2l.652-.011.058 3.791 1.194-.018.009.594Zm-2.199-2.726.292.035c.136.014.247-.021.334-.109.103-.104.169-.274.197-.507.028-.247-.002-.435-.088-.545-.052-.065-.126-.104-.221-.115l-.364-.043zm.141 1.982c.321.031.438-.339.476-.663.028-.237.003-.419-.072-.541-.065-.104-.17-.166-.313-.182l-.299-.036-.161 1.379zm.152.586c-.042-.001-.082-.004-.118-.008l-1.118-.132.01-.083.502-4.271 1.088.128c.313.036.542.168.679.389.127.208.171.494.129.85-.056.476-.255.808-.547.929.285.19.408.557.349 1.055-.113.971-.617 1.147-.974 1.143m-3.087-2.412.551.135.088-1.537zm1.104 2.155-.643-.158.065-1.281-.773-.19-.53 1.167-.609-.15 1.921-4.055.764.187zm-3.898-1.754c.13.049.246.052.345.008.139-.062.207-.198.235-.274l.827-2.166c.046-.12.112-.418-.266-.562l-.358-.136-1.142 2.993zm.267.659c-.142-.003-.292-.034-.445-.093l-1.001-.381 1.561-4.097 1.012.386c.614.234.864.727.65 1.287l-.844 2.216c-.119.31-.316.525-.572.623-.112.042-.233.062-.361.059m-2.594-1.001-.519-.286.495-3.018-1.39 2.525-.525-.289.04-.074 2.075-3.766.585.322-.43 2.754 1.264-2.295.519.286-.04.074zm-2.863-1.668-1.488-1.093 2.595-3.535 1.484 1.091-.344.468-.958-.703-.724.985.767.563-.347.474-.767-.564-.829 1.128.963.707zm-1.767-4.38.201.189c.119.112.246.149.389.112.15-.039.321-.158.506-.356.446-.474.309-.706.167-.84l-.223-.21Zm-1.562 1.658-.48-.451.057-.061 2.948-3.13.75.706c.258.242.367.518.325.82-.037.268-.194.552-.467.842-.607.644-1.22.738-1.726.261l-.24-.226Zm-1.254-1.278-1.175-1.425 3.382-2.789 1.171 1.421-.449.369-.756-.916-.943.777.606.734-.453.374-.606-.735-1.08.89.76.922zm-2.005-3.688c.221.354.533.196.623.139l1.966-1.23c.107-.066.178-.153.204-.252.029-.109.003-.229-.077-.356l-.203-.326-2.717 1.7zm.309.888c-.306-.026-.585-.21-.793-.542l-.569-.909.071-.045 3.647-2.281.575.918c.162.26.231.524.199.764-.036.264-.194.491-.457.655l-2.011 1.258c-.224.14-.449.199-.662.182m35.337-26.48-.453-.533 1.558-1.32 1.507-2.484.475.561-1.008 1.597 1.725-.752.442.522-2.699 1.097zm-1.08-1.253-1.471-1.368 3.262-3.509 1.466 1.364-.423.455-.954-.887-.924.993.765.71-.428.461-.764-.712-1.056 1.136.959.892zm-2.207-1.978-.526-.355.847-3.285-1.787 2.651-.532-.358 2.678-3.971.596.403-.751 3.003 1.627-2.413.526.355zm-3.044-1.9-.636-.303 1.832-3.748-.803-.382.273-.559 2.242 1.069-.273.558-.803-.382zm-1.846-.806-.671-.24 1.651-4.495.671.24zm-1.759-.608-.691-.147.451-2.069-.968-.206-.452 2.069-.697-.149 1.019-4.673.696.148-.427 1.961.969.206.427-1.961.692.147zm-3.616-.649-.643-.021-.383-3.14-.575 3.11-.643-.021-.553-4.842.702.023.277 2.93.53-2.905.676.021.341 2.9.452-2.874.65.019zm-6.144-1.765c-.174.209-.226.491-.159.858.05.275.229.724.621.652.249-.046.383-.295.441-.439-.06-.071-.204-.241-.344-.407-.291-.344-.471-.557-.559-.664m-.018-2.224c-.014.001-.029.003-.043.006-.314.057-.271.433-.25.547.043.235.239.513.439.764.228-.246.303-.533.237-.894-.025-.139-.082-.258-.159-.333-.065-.064-.14-.093-.224-.09m.347 4.386c-.579.029-1.014-.398-1.151-1.15-.109-.597.042-1.109.437-1.485-.325-.382-.511-.724-.569-1.042-.09-.497.066-1.125.804-1.26.565-.1 1.019.238 1.13.848.102.556-.067 1.06-.488 1.463.057.067.58.674.658.766.016-.197.022-.383.019-.591v-.078l.588-.043.003.087c.011.384-.032.82-.122 1.231.038.045.692.825.692.825l-.752.132-.29-.333c-.18.33-.467.551-.803.612-.054.01-.105.016-.156.018m-3.418.97-1.498-3.89-.823.317-.223-.58 2.298-.885.224.58-.823.317 1.498 3.89zm-2.106 1.005-1.948-3.685-.78.412-.29-.549 2.177-1.15.29.549-.78.412 1.949 3.685zm-3.841-1.96.71 1.589.526-.365zm.979 3.824-.041-.095-1.891-4.41.698-.484 3.527 3.398-.583.404-1.005-.983-.728.504.574 1.283zm-4.17-1.82 1.067 1.151.281-.26c.237-.22.179-.524-.172-.902-.162-.174-.324-.292-.47-.338-.163-.053-.308-.02-.439.102zm2.318 3.536-.057-.061-3.201-3.45.807-.75c.558-.517 1.196-.446 1.795.2.43.463.576.94.412 1.323l1.971 1.135-.528.491-1.823-1.06-.23.214 1.371 1.478Zm-4.556-1.061 1.304 1.061.196-.242c.085-.103.341-.418-.339-.971-.559-.454-.806-.283-.944-.114zm2.785 3.174-.065-.052-3.652-2.97.707-.87c.243-.298.534-.438.865-.418.294.019.615.168.953.442.356.29.577.592.658.898.089.333.009.656-.236.957l-.234.288 1.449 1.178z"/><path fill="#f9d70b" d="M56.0013 32.8637s-.093.021-.241.074c-.147.052-.278.295-.339.407-.06.114-.104.312-.164.46-.061.147-.208.278-.208.278l-.157.104-.144.166-.018.214-.536-.06s-.416.104-.455.212c-.03.086.371.333.371.333l-.018.48c.257-.05.592-.078.744-.078.351 0 .657.121.884.285.226.166.444.364.567.509.056.068.156.153.246.153.117 0 .154-.058.154-.202 0-.215-.127-.532-.204-.692.675.214.771.438.724.721.182-.24.621-.686.621-1.331-.002-.513-.553-.96-.93-1.257-.045-.032-.392-.296-.51-.369-.076-.048-.13-.077-.221-.179zm-25.459 4.275-1.961.455s-1.381.036-1.56.036c-.509 0-.433-.45-.287-.506.032.245.232.344.368.344.062 0 .087-.008.162-.024-.38-.42-.33-.485-.265-.576-.322-.293-.087-.658-.008-.654.004.284.117.443.198.531.108-.01.232.061.284.066-.03-.062-.116-.158-.116-.315 0-.221.109-.309.203-.355-.01.021-.019.086-.018.171.001.114.042.282.283.416.17.107.609.342.749.342.079 0 .108-.117.108-.153 0-.322-.519-.371-.673-.478-.159-.138-.15-.243-.15-.354.23-.028.488.149.642.133-.051-.11-.075-.174-.075-.245.218-.075.399-.025.406.189.038.047.095.137.128.15.05-.097.143-.257.239-.245.093 0 .202.168.246.259.229 0 .239-.044.29-.096-.07-.064-.13-.175-.128-.301.001-.079.037-.164.116-.245.227-.011.258.114.345.288z"/><path fill="#fff" d="m29.6922 32.81-2.468-.942c-.061-.04-.767-.504-1.171-.312-.095-.059-.5-.264-.778-.222-.213-.131-.54-.17-.753-.209-.04-.008-.306.08-.406.14-.133.099-.42.299-.51.478-.005.016-.766-.194-.868-.176-.12-.009-.322.41-.423.623-.061.101-.357.101-.579.069-.325 0-.827-.164-1.182-.054-.282.071-.532.362-.549.752-.336.049-.588.162-.669.222-.359.047-.72.331-.814.435-.251.267-.285.394-.285.958 0 .201.17.478.475.766.04.784.628 1.243.708 1.323.122.122 1.177.25 1.298-.003.062-.002.336-.007.549-.007.132.223.426.673 1.552.143.319-.022 3.541-.825 4.413-1.181 0 0 1.333-.397 1.394-.409l-.87-.871.392-.786Z"/><path fill="#fff" d="m47.9442 30.2793-1.037.828.06.248-.752.311.074.286 1.113.366-1.123.238.005.492.749.356-.395.354.039.076 1.052.165-.778.627.991.105.134.457.666.002.257.612 5.093-.27.018-.481s-.388-.236-.371-.333c.018-.1.448-.213.448-.213l.544.061.017-.214s.434-.362.493-.507c.06-.146.148-.332.207-.442.06-.111.156-.254.301-.306.145-.051.293-.121.293-.121-.023-.052-.577-.656-.717-.79-.347-.648-4.725-2.272-6.172-2.272Z"/><path fill="#231f20" d="M36.0287 43.021h.126c.085 0 .145-.014.179-.041.034-.027.051-.063.051-.105 0-.044-.016-.079-.049-.106-.033-.028-.089-.041-.169-.041h-.138Zm-.292-.498h.525c.149 0 .256.03.323.09s.1.14.1.241c0 .079-.026.147-.076.205-.051.057-.131.099-.241.125.046.017.078.035.099.054.031.027.062.067.094.12.002.003.066.117.19.339h-.345c-.112-.223-.188-.357-.226-.401-.039-.043-.077-.065-.115-.065-.009 0-.021.001-.036.004v.462h-.292Zm1.384.587c0-.244-.087-.453-.26-.626-.173-.173-.382-.26-.626-.26-.245 0-.454.087-.627.26-.173.173-.26.382-.26.626 0 .245.087.453.26.627.173.173.382.26.627.26.244 0 .453-.087.626-.26.173-.174.26-.382.26-.627m.213 0c0 .197-.049.38-.148.55-.098.17-.232.303-.402.401-.17.098-.353.147-.549.147-.196 0-.379-.049-.548-.147-.17-.098-.304-.231-.403-.401-.098-.17-.147-.353-.147-.55 0-.195.049-.378.147-.548.099-.171.233-.305.403-.402.169-.098.352-.147.548-.147.196 0 .379.049.549.147.17.097.304.231.402.402.099.17.148.353.148.548"/><path fill="#7b7979" d="M35.6263 30.3632Zm-22.313-7.773c-.001 0-.001-.001-.001-.001h.001zm44.29-2.598s-1.587-.305-6.69 1.324c0 0-.04-2.222-.418-2.229-.212-.004-.523.483-.737 1.346-.155-.119-.764-.591-1.146-.682-.032-.008-.109 1.082.036 1.292-.39-.048-3.883-.082-4.01.191-.031.065 1.014.502 1.136.641-.071-.006-1.95-.15-2.346.245 0 .076.813.745.846.832-.023.003-3.145.127-3.493.656.052.151.619.552.641.572-.029-.001-1.391-.054-1.721.256-.679-.769-2.754-3.303-4.136-4.633-2.106-2.025-3.939-2.109-10.273-2.025-5.566.236-9.311.6-12.57.6-.984 0-1.687-.027-2.492-.036-.072-.001-.757.229-.836 1.182-.01.109 3.474.198 3.565.218-.75 1.828 1.198 3.981 1.928 5.002.648.63 1.701 2.012 3.51 2.012.225 0 .578-.086.573-.089.569.31 2.336.822 2.834.945.587.475 1.798.635 2.962.565-.005 0-.578.254-.92.501-.002.001.915.742 1.871.696.434.077 1.671-.14 2.003-.228-.214.252-.741.878-.741.878.41.637 2.364.535 2.456.118-.078.35.152 1.31 2.201.736.066-.018-.386.629-.368.66.249.437 2.318-.277 2.31-.281.009.004-.22.523-.22.628 0 .229 1.749.263 1.766.268-.13.083-.993.518-1.601.481-.227-.013-1.96.091-2.688.173-.632.072-1.891.255-2.464.619 0 0-.637.345-.328 1.255.048.141.728.55 1.133.495.209-.018.855-.1.855-.1.086-.019.782.059.855.328 0 0-.532.823-.387 1.687.008.047 5.525-.105 6.107-.127 6.003-.232 6.794-.232 10.781-.86l-.828-2.278.355-.317-.713.017-.045-1.896s2.456-1.897 4.776-3.78c1.897-1.54 6.446-4.652 6.863-5.069 0 0 .065-.23.008-.991-.039-.506-.037-1.278-.2-1.798"/><path fill="#231f20" d="M49.6532 33.5146c-.176 0-.004.113-.214.113-.057 0-.861-.136-.861-.193l-.018.145c.073-.029.222.031.222.127 0 .057-.277.058-.395.06-.016.058-.009.129-.009.129.076-.043.149-.039.163-.036.062.017.154.08.48.04.21-.026.943-.114.943-.114.026-.025.041-.067.063-.079-.022-.011-.137-.069-.177-.087-.139-.053-.083-.105-.197-.105"/><path fill="#231f20" d="M50.2289 34.0009c-.051 0-.12.078-.171.086.118.079.964.173.962.329 0 0 1.095.016 1.126.01-.023-.032-.148-.085-.148-.085-.32-.001-.474-.099-.819-.126.003-.034.023-.107.02-.134 0 0-.918-.08-.97-.08"/><path fill="#231f20" d="M50.2206 30.4072c-.201-.053-1.057-.148-1.172-.168l-.103.024c.064.076.147.12.198.12h.284c.051 0 .077.017.095.033-.02.056-.02.126.005.172h.504c.051.001.153.063.204.059h.152c-.112-.102-.214-.088-.227-.168.018-.017.062-.045.06-.072"/><path fill="#231f20" d="M26.2084 32.0273c.02-.02.152-.264.152-.264-.369-.429-1.735-.866-2.225-.51.02.052.441.389.481.382.623-.097 1.364.26 1.592.392"/><path fill="#231f20" d="M22.2245 32.0522c-.003.024-.121.148-.364.148-.351 0-.504-.046-.865-.046-.242 0-.367.028-.367.028l.136.334c.255-.047.501-.044.596-.044.492 0 1.486.142 1.486.142-.055-.06-.185-.187-.214-.222-.036-.044-.1-.132-.1-.242 0-.303.236-.353.414-.353.115 0 .248.029.38.07.486.148 1.22.413 1.22.413l.069-.276c-.273-.113-1.529-.557-1.78-.557-.343 0-.57.238-.611.605"/><path fill="#231f20" d="m20.5643 32.3779-.036-.167c-.059.011-.134.033-.232.098-.072.048-.233.192-.269.463.025.003.163-.039.199-.062.055-.131.136-.231.338-.332"/><path fill="#231f20" d="m21.0506 32.9648.836-.006c-.169.114-.286.273-.338.273-.051 0-.803 0-.831-.003-.003-.028.216-.235.333-.264m-1.21.54c.208.006.602-.014.829-.009.366.008.458.246.524.341.26-.018.414-.055.603-.048-.06-.113-.166-.261-.232-.342.13 0 .415 0 .548.004.133.005.435.291.435.291l.387-.033c-.169-.161-.364-.383-.419-.453-.053 0-.403-.018-.641-.018.054-.028.446-.297.446-.297h2.095c-.03-.101-.23-.148-.667-.148h-2.931c-.755 0-1.281.239-1.45.364.008.023.473.348.473.348"/><path fill="#231f20" d="M18.5614 33.5722c.085.012.308.136.406.172 0 0 .305-.187.382-.24-.017-.042-.173-.243-.197-.285-.301.089-.579.337-.591.353"/><path fill="#231f20" d="M18.8075 34.5083s1.106-.034 1.337-.042c.231-.008.343-.351.343-.351-.155.024-1.627.181-1.676.184 0 0 .002.126-.004.209"/><path fill="#231f20" d="m55.7025 21.2236-.235.191.741.541s-.58.131-1.027-.419c.098-.512.501-1.365 1.253-1.443.549-.057.756.008.893.029-.321.196-.519.409-.519.409s.209.309.209.565c0 .111-.273.501-.273.501Zm-.992 2.549c.011.087-.279.258-.294.351l-.009-.454s-.454.481-.449 1.19l.348-.103c.075.041.154.14.081.187-.417.268-.877.154-.907.131.143-1.648 1.642-2.579 2.081-2.702-.108.081-.899 1.042-.851 1.4m-1.564 1.17c-.583.877-1.352 1.009-1.421.979.016-.087.048-.127.04-.27.159.015 1.162-.502 1.13-1.043-.406.119-.911.556-.907.549.754-1.369 1.439-1.92 1.439-1.92.021.194.181 1.011-.281 1.705m-2.351 2.621s.156-.192.245-.811c.198-1.364-1.159-2.483-1.159-2.483-.012-.322-.05-.372-.05-.389 1.823.532 1.976 3.007.964 3.683m-.593.314c-.279.184-.594.478-.771.894-.02.047.171-1.473.127-1.899-.064-.609-.626-1.846-2.001-2.31.091-.197-.014-.287-.127-.427 3.399 1.299 2.772 3.742 2.772 3.742m.028 2.311c1.249.333 3.04.878 4.54 1.697.42.229.935.767 1.059 1.028-.038.007-.179.06-.179.113 0 .052.022.089.047.089s.067-.038.163-.038c.16 0 .955.608 1.385.973.245.207.462.568.462.91 0 .483-.307.861-.427.952-.064-.232-.244-.355-.392-.409-.05-.018-.503-.179-.848-.381-.535-.299-1.069-.371-1.583-.371-.051 0-.283.003-.352.031.083.103.218.101.31.101.862 0 1.294.213 1.469.313.175.101.489.311.546.437 0 0 .175.428.175.587 0 .075-.061.089-.083.089-.052 0-.111-.059-.15-.102-.644-.709-1.046-.958-1.888-.975-.037 0-.065-.175-.095-.213-.078-.027-.175-.012-.252-.033-.26-.073-.313-.22-.314-.264.108-.098.243-.165.375-.165l.275.033c.344.066.339-.045.339-.097 0-.118.052-.252.154-.305.017-.003.133-.04.147-.061.049-.104.062-.154.125-.247.014-.041.037-.088.029-.118-.073.107-.16.216-.237.271-.07.048-.155.054-.22.098-.109.073-.161.357-.175.393-.022-.004-.077-.039-.115-.101-.149.074-.593-.038-.593-.038.02.053.103.092.123.126-.057.035-.105.053-.156.053-.052 0-.243-.14-.295-.14-.051 0-.086.036-.117.042.044.052.128.099.168.152-.036.014-.11.03-.139.035.02.051.06.036.06.088 0 .051-.039.131-.039.131.048-.017.09-.039.142-.039.051 0 .103.082.103.134 0 .052.026.05.026.05.087.002.176.01.253.027-.002.014-.02.028-.037.047l-.271-.009c-.03.088-.112.012-.169.072.088.049.193.091.29.109.028.14.06.093.06.199 0 .051-.101.046-.139.047-.043.001-.085-.003-.137-.013.003-.034.044-.055.042-.102-.045-.024-.101-.105-.153-.105h-.259c-.052 0-.117.09-.115.137.045.025.06.056.062.071-.057.017-.118.046-.169.046-.052 0-.064-.036-.079-.036-.137-.018-.653-.006-.901-.006-.113 0-.147.003-.26-.061.018-.012.037-.031.055-.046.1-.004.216-.054.267-.054.052 0 0 .041.052.039l.203-.005c.003-.03.024-.071.022-.098-.067-.024-.148-.071-.184-.084.018-.011.258-.152.269-.294-.029-.003-.504-.154-.787-.199l-.994.04c-.052 0-.139-.082-.191-.081l-.251.008c.046.033.075.012.131.096.005-.004.19.013.37.118.104 0 .233-.002.257-.002-.002.033-.015.082-.156.082-.048 0-.093-.008-.14-.008-.112 0-.198.066-.249.067-.095 0-.189-.135-.268-.135-.136 0-1.162.497-1.213.497-.055 0-.114-.006-.114-.073 0-.051.042-.062.038-.131-.151-.003-.347-.064-.399-.064-.051 0-.082.02-.321.024.03-.149-.106-.127-.143-.163.001-.058.022-.121.013-.163-.013-.042-.053-.059-.055-.094.057-.017 1.547.025 1.558.025.051 0 .209-.042.319-.089h-.543c-.019-.013.459-.149.502-.15-.346-.034-1.425-.068-1.452-.091-.152.009-.692.072-.689.101 0 0 .348.053.349.07-.019.017-.123.056-.302.056 0 0-.628-.057-.689-.054.018-.011.537-.425.656-.5.051-.03.141-.004.21-.033-.049-.036-.16-.114-.239-.114 0 0-.963-.165-1.019-.178 0 0 .455-.317.492-.317h.176c.052 0 .263.144.315.144 0 0 .574.042.6.04.025-.046.046-.071.044-.097-.067-.024-.394-.128-.472-.128-.051 0-.134.041-.185.041-.052 0-.106-.082-.157-.082h-.371c-.042 0-.063-.035-.063-.052 0-.026.012-.048.029-.064 0 0 .603-.06.6-.128-.028-.004-.163-.107-.319-.107h-.984c-.051 0-.075-.031-.077-.066.057-.016.095-.057.147-.057.051 0-.148-.245-.166-.258.183-.062 2.093-.296 2.093-.296l-.436-.326-1.332-.007c-.024.047-.364-.295-.364-.295.182-.072.723-.215 1.319-.196l-.542-.363s1.116-.508 1.717-.626c-.124-.062-.724-.07-.743-.087v-.075c.039-.038.835-.216.924-.196.042-.106.081-.184.192-.184.051 0 .983.176 1.099.21m.643 5.39c-.053-.026.314-.67.314-.67h.244c-.024.062-.074.088-.123.151.115.017.237-.017.361-.002.084.01.202.07.308.128-.028.036-.171.288-.54.287-.072.024-.461.082-.564.106m-.036-.41c-.065.111-.187.35-.33.381-.107.023-.483.072-.714.077.076-.015.382-.599.399-.617h.075c.031.031.209.143.209.143.044-.019.031-.059.083-.061h.278zm-1.372.553h-.416v-.16c.116.091.215-.004.315-.004.052 0 .231.021.34.073-.09.03-.188.092-.239.091m-2.885.329c-.167-.04-.5-.188-.598-.303-.096 0-.775.166-.775.166-.005-.053-.053-.087-.047-.215.09-.006.845-.223.845-.223-.005-.049.075-.326.337-.475-.202-.111-.426-.219-.506-.405.117-.568.353-.902.583-1.01.005.032.304.014.257.054-.246.2-.524.635-.514.901.151.256.514.358.681.412-.145.07-.421.276-.541.526 0 0 .064.189.601.351 0 0-.279.179-.323.221m-2.877-1.176c-.033-.074.693-.764.693-.764l.28.144s-.366.282-.455.461c0 0 .64.171.939-.02l-.197.287c-.369.116-1.227-.033-1.26-.108m-.344 1.284c-.009-.093.071-.507.233-.655-.281.009-.653-.088-.955-.533.087-.323.434-.549.619-.603l.196.131c-.137-.012-.413.384-.409.416.059.255.933.382 1.114.382 0 0-.348.364-.382.637.133.071.26.222.579.177.011.047.235.158.251.21-.113.067-.886.122-1.246-.162m-.885-.516c-.828.31-1.342-.022-1.553-.139.08-.226.307-.7.729-.825l.33.069c-.055.008-.509.354-.561.613.47.151.733.144 1.202-.012 0 0-.167.187-.147.294m-1.777.248c-.322.094-.882-.06-.953-.132.074-.2.532-.719.696-.764l.231.065c-.202.119-.388.277-.569.58.064.047.525.06.708.019zm-1.842-2.158c.136-.224.497-.507.845-.58.076-.015.129.125.129.125-.243.094-.372.228-.489.39.145.064.45.174.975.122-.032.091-.2.231-.208.233-.537.112-.969-.041-1.252-.29m-.217.374c-.366 0-.723-.107-.873-.348.119-.153.49-.399.726-.399.052 0 .067.118.067.118-.171.035-.373.167-.471.275.086.074.368.16.718.206-.034.066-.163.148-.167.148m-2.133.816c-.017-.018.005-.027-.036-.131.059-.055.618-.54 1.197-.633 0 0 .006.097.024.11-.376.199-.588.296-.785.493 0 0 .561.066 1.398-.183.032-.009.052.177.052.177-.875.358-1.85.167-1.85.167m-.31-1.038c-.201-.007-.257-.006-.722.453.137.09.545-.057.596-.057.052 0 .003.229.006.242-.626.119-.997.084-1.039.084-.197 0-.288-.106-.278-.113.103-.076.987-.863 1.09-.932.192-.129.965-.748 1.242-.799l-.151.365c-.271.088-.621.494-.565.534.445.274 1.022.234 1.106.23-.034.048-.151.241-.231.235-.689-.047-.869-.236-1.054-.242m-2.085-.299c.939-.258 1.667-.543 1.667-.543l-1.142.929c-.142-.257-.191-.274-.525-.386m-.283.625c-.247.123-.404.319-.386.27.088-.231-.07-.481-.088-.493.036-.013.474-.275.55-.283.418.152.471.328.489.343-.191.035-.39.095-.565.163m-1.488 1.655c.015-.036.036-.221-.093-.403-.003-.005.451.003.97-.382.12.296.349.269.364.29.011.015-.328.444-1.241.495m-.346-1.218c-.006-.004.534-.178 1.214-.587.02.111.015.456-.313.743 0 0-.157.068-.731.325 0 0 .041-.32-.17-.481m.023 1.272c-.049.067-.825-.023-1.089-.095.081-.081.123-.239.105-.377.348.074.423.072.913.048.067.075.238.2.071.424m-1.366 1.098s.041-.2-.126-.316c0 0 .591.063.958-.329.008-.008.567.296.567.296-.594.34-1.16.382-1.399.349m-.406.081c-.047.005-.245.065-.37.065-.642 0-.727.303-1.299.303-.214 0-.341-.057-.439-.099-.046-.021-.275-.162-.275-.162-.057-.038-.081-.091-.081-.174 0-.073.059-.146.14-.146.078 0 .268.121.376.165.093.036.166.066.301.066.051 0 .156-.008.156-.089 0 0-.029-.133-.046-.184-.016-.067-.033-.102-.033-.154 0-.117.131-.15.169-.155.03-.004.098-.007.115-.001 0 .016.003.037.003.078 0 .212.226.245.313.245.148 0 .224-.084.4-.084.052 0 .524-.042.575-.042.052 0 .121.075.142.148.026.111-.027.205-.147.22m-2.996.528c.03-.037.034-.103.007-.173.201.054.514-.033.599-.092.044.022.238.133.375.17-.141.046-.868.1-.981.095m-.223-.623c0-.069.028-.209.231-.209.273 0 .291.292.532.477-.017.013-.097.106-.33.106-.052 0-.172-.017-.192-.036-.188-.073-.241-.268-.241-.338m-.172-.458c-.004-.083.032-.207.098-.296.005.021.007.128.038.248.02.079.065.141.129.212l-.146.1c-.015-.023-.113-.113-.119-.264m.661-.354c-.021.105.038.349.159.435l-.188.14c-.086-.089-.108-.201-.108-.283 0-.069.066-.258.137-.292m.321.62c0 .056-.073.119-.146.119-.083 0-.141-.102-.152-.106.036-.014.124-.102.186-.102.086 0 .112.044.112.089m.754-.15c-.193-.133-.498-.123-.648-.34.086-.053.122-.157.113-.213.148 0 .423.178.478.213.065.042.092.068.171.122-.05.038-.105.109-.114.218m.001-.693c.16 0 .22.08.221.132 0 .024.001.079.001.079.02.071.132.108.165.215-.049-.022-.191-.011-.246.024-.061-.051-.096-.086-.181-.187 0 0-.04-.055-.055-.104.04-.012.086-.102.095-.159m.427.371c0-.058.058-.18.145-.18.144 0 .122.196.324.196.114 0 .168-.014.243-.02 0 0 .173-.013.206-.013.05 0 .184.023.184.141 0 .042 0 .158-.071.158-.102-.004-.173-.021-.315-.021-.142 0-.348.056-.4.056-.356 0-.32-.267-.316-.317m.579-.491c.124.028.248-.084.253-.12.183.068.197.261.197.334 0 .072-.104.16-.21.16-.188 0-.249-.254-.24-.374m.546-.824s.585-.335 1.238-.345c.452.077.524.514.521.542-.429-.239-.574-.243-.753-.267-.266-.036-1.006.07-1.006.07m-1.008.065c-.502-.281-1.012-.376-.961-.376 0 0 1.005-.222 2.131-.448.209-.042.295.342.277.354-.225.042-1.141.013-1.447.47m-1.408.307s-.155-.311-.184-.345c.083-.004.226-.068.433-.132.207-.063.537.221.537.221-.222.116-.702.205-.786.256m-.529-.419c-.052 0-.554-.321-.571-.344.213-.024 1.208-.175 1.21-.16-.132.248-.251.455-.639.504m-.649.676-1.376.427c-.098.063-.338.174-.625.17l-.242-.018c-.123.134-.379.262-.518.262-.148 0-.301-.041-.353-.041-.112.137-.277.208-.45.208-.035 0-.136-.025-.14-.075-.318.33-.643.327-.827.336-.18 0-.427-.053-.516-.261.444-.184.387-.319.58-.63.264.228.547.252.547.252.178-.012.371-.131.508-.366 0 0 1.201-.022 2.239-.272.556-.133 1.689-.518 1.717-.526.198-.066.298.303.316.318-.373.024-.808.216-.86.216m-5.376.901c-.362 0-.385-.151-.385-.151-.028.061-.235.339-.66.339-.84 0-1.248-.953-1.248-1.192 0-.107.04-.181.103-.198.055.092.219.498.446.498.397 0 .512-.316.628-.421.029-.026.151-.016.33-.009-.048.1-.179.478-.417.63.358.007 1.226 0 1.711-.011-.112.193-.207.515-.508.515m-.328-1.264c.061 0 .747-.039.764-.032.02.181.005.429-.395.509-.436 0-.565.019-.601.005.115-.1.165-.258.232-.482m1.146-.073c.038.001 3.334-.401 3.351-.401-.056.127-.307.619-.968.715-.079.026-2.415.224-2.624.227.174-.133.219-.364.241-.541m1.114-1.006c.135-.014 2.415-.236 2.415-.236s-.293.632-.659.656c0 0-1.816.226-2.024.25.078-.155.183-.465.268-.67m3.353.458c-.082.195-.116.504-.615.635-.207.047-.573.1-.573.1.167-.161.31-.349.39-.607zm1.182-.952c.069 0 .225-.009.28.003-.286.629-1.481.712-1.536.733l-.878.109c.107-.214.169-.374.249-.614.013.036 1.55-.233 1.885-.231m.575-.042s.592-.454 1.397-.585l.245.161s-.944.338-1.027.424c0 0 .285.145.363.485-.69.069-1.057.216-1.151.249zm1.874-.235.434.372c-.359.083-.807.237-.967.278.012-.018.012-.215-.201-.344-.054-.008.734-.306.734-.306m.273-.4c.271-.267.58.004.58.004-.23.083-.28.325-.368.474 0 0-.338-.275-.372-.279.018-.038.126-.152.16-.199m1.278 1.269c-.084.015-.47.024-.733.231 0 0-.106-.286-.199-.39l.765-.27c.017.125.167.429.167.429m.348-1.458c-.034.014-.112.251-.161.501-.442.048-1.07.416-1.045.371.175-.31.385-.648.385-.648.266-.31.803-.254.821-.224m.577 1.196c-.086.005-.454.196-.639.239-.004-.035-.1-.403-.215-.502 0 0 .381-.297.629-.175.022.299.12.317.225.438m-.355-1.213c.51-.2 1.083-.12 1.147-.096-.064.079-.077.127-.08.191-.056.002-.782.033-1.213.383-.004-.034.117-.238.146-.478m1.571.39c-.037.211.035.268.023.297-.476.005-1.006.419-1.059.442-.03-.251-.156-.415-.148-.42.252-.153.523-.221.614-.247.245-.072.568-.066.57-.072m-.277-.483c.069 0 .934-.089 1.239-.007-.046.1-.326.377-.326.377-.086-.024-.336-.271-.923-.181-.002.001.041-.082.01-.189m-.062-.885c1.922-.834 3.961-2.181 4.162-2.33 0 0-.286.848-1.014 1.355-.376.262-1.29.872-2.275 1.057-.235.044-.622-.004-.873-.082m2.185-1.493Zm-4.313 1.121c1.092-.448 2.778-1.487 2.777-1.488-.06-.116-.124-.239-.124-.239l.856-.517c.155-.1.74-.406 1.202-.318.015.429-.267.795-.438.907-.171.111-1.668 1.034-2.089 1.231-.421.198-1.181.663-2.184.424m-1.601-.792c.443-.191 4.675-2.701 4.903-2.856.067.089.195.762-.159.969-.064.037-.705.469-.804.521.147-.343.204-.634.179-.701-.171.127-.401.258-.531.346 0 .052-.041.55-.274.699-.403.259-1.721.963-2.013 1.081-.474.191-1.17.101-1.301-.059m-.72-.586c-1.394.422-1.917-.09-1.917-.09 1.265-.645 2.536-1.336 2.554-1.337.089.13.281.329.521.227.264-.117 2.006-1.075 2.006-1.075s.067.243.293.392l-1.251.765c-.326.187-1.591.933-2.206 1.118m-2.365-.932c-.504.143-1.308.163-1.508.008 3.271-1.412 5.035-2.406 5.584-2.765 0 0-.181.355.119.728 0 0-3.338 1.828-4.195 2.029m-2.363-.455c.924-.322 2.808-1.203 2.911-1.256.015.003.213.237.287.314 0 0-1.997.896-2.201.973-.189.072-.738.278-.997-.031m2.671-3.578c.279-.278 1.278-.88 1.451-1.018.002.06.011.152.022.253 0 0 1.19-.5 1.238-.6 0 0 .123.409.158.586-.182.099-1.81.939-2.869.779m1.44-2.252c.006.136-.071.239-.071.326.143-.038 1.552-.686 1.711-.748.04.191.107.327.259.47-.051.013-2.218.895-2.268.907-.518.119-1.282.032-1.421-.083.249-.1 1.709-.809 1.79-.872m-1.843 2.105c-.229.158-1.029.72-1.031 1.178-.024.033-2.636 1.099-3.954 1.098-.286 0-.83-.008-1.179-.268 2.577-.482 6.074-2.005 6.205-2.084-.006.033-.042.06-.041.076m-3.705-1.428c.716-.107 3.472-.981 3.565-1.023.007.057.167.616.161.672-1.226.478-2.837 1.05-3.726.351m-2.798 1.557c-.005-.036.378-.525.211-.906l2.021-.491c.075-.018.203.527.643.741-.003.025-2.875.656-2.875.656m-2.596.261c-1.293 0-1.865-.6-1.937-.741 1.934.143 3.916-.299 3.916-.299s-.267.433.014.874c-.031.004-1.13.166-1.993.166m-2.787-2.191c.931.161 2.849.03 2.956.018.054.359.427.705.427.705-.422.046-1.905.114-1.905.114-.701 0-1.312-.202-1.478-.837m-1.578-1.487c1.018.183 2.547.091 2.547.091-.028.5.491.737.568.79-.854-.028-2.614.122-3.115-.881m.244.884v-.001zm-.34-2.477c.537.089 1.482.085 1.665.108.089.357.18.613.396.839 0 0-1.794-.078-2.061-.947m4.052-1.508c.123.451.17.672.477.899-.343.059-.983.056-2.141.056s-2.109-.55-2.324-.981c1.946.227 3.243.08 3.988.026m1.264 2.428c-.071.008-.881.045-2.009.045-.574 0-.999-.541-1.035-.827.895.048 2.101.028 2.316.035.144.403.728.747.728.747m2.245-2.811c-.283.187-.705.835-.705.835.895-.018 4.409-.116 4.409-.116s-.45.299-.51.382c-.491.037-3.684.164-3.684.164-.925 0-2.234-.349-2.437-.946 0 0 2.378-.24 2.927-.319m3.787-.19c.045.175.105.336.29.491 0 0-3.266.13-3.311.127-.033-.077-.175-.302-.265-.464.252-.077 3.286-.154 3.286-.154m3.157-.125c.03.286.025.343.198.48-.373.008-1.833.076-2.483.1-.209-.192-.227-.323-.299-.497.052 0 2.407-.107 2.584-.083m-.215 3.016c-.003.024.361.303.544.486-.116.031-2.196.469-2.725-.247.573-.056 2.009-.223 2.181-.239m-2.82-.475c-.356-.039-.973-.269-1.212-.46.389.024 3.033-.298 3.033-.298.035.045-.03.334.012.591 0 0-1.344.221-1.833.167m-1.897 1.004 2.162-.23c-.082.179.222.568.276.675-.329.062-2.41.317-2.465.291.002-.023.036-.309.027-.736m-.406-.844s-.47.131-2.271.146c0 0 .434-.576.485-.576.719.009 2.583-.154 2.583-.154-.144.192-.351.545-.797.584m-2.895 1.044c1.255.109 2.984-.178 2.984-.178-.052.189-.126.389-.15.747-.483.054-2.152.413-2.834-.569m1.328 1.214s.204.365.704.582c0 .016-2.4.38-2.46.378-.376.035-.677-.513-.688-.651zm-2.384-2.606c.71.046 1.717-.064 1.847-.073-.053.035-.299.304-.454.577 0 0-1.237.01-1.393-.504m.283 1.419c-.567.452-.554.75-.601.836 0 0-.644.052-.835.04-.501-.107-.646-.523-.738-.794.301.025 2.018-.07 2.174-.082m11.491-3.761c-.02.137.001.407.001.469-.334.017-1.463-.021-1.683-.01l-.473-.491c.161 0 2.025.012 2.155.032m.287-.007c.185.004 3.029.03 4.91 1.713-.089.051-.436.15-.499.101-1.701-1.33-4.416-1.335-4.424-1.335-.052 0 .013-.479.013-.479m5.744 2.55c.068.06.738.7.91.937l-.61-.101c-.163-.151-1.315-1.385-1.355-1.401l.388-.117c.106.1.667.682.667.682m2.845 3.237c-.018.016-.193.122-.371.164-.095-.153-1.763-2.122-1.928-2.292l.563.072c.298.355 1.25 1.458 1.736 2.056m.733 5.166c.037.009.155.046.401.1-.41.282-.502.716-.537.801.659.05 1.121-.245 1.228-.332l.13.139c-.107.205-.639.447-.967.493-.32.044-.632.027-.873-.092.101-.343.346-.745.618-1.109m2.377-1.873-.349.309s-1.029-.556-2.055-1.91l-.104-.771s1.057 1.437 2.508 2.372m-1.079-2.695c1.047 0 2.796.892 3.297 1.376-.358-.179-2.033-.949-3.275-1.032-.362-.023-.682.136-.682.136-.141-.15-.2-.195-.332-.319 0 0 .338-.161.992-.161m1.038-.906c.936 0 2.206.48 2.496.66-.805-.152-1.55-.366-2.325-.279.13.166.201.339.251.512-.227-.098-.495-.187-.832-.273-.29-.075-.518-.312-.558-.415.25-.146.598-.205.968-.205m5.213 1.063c-.491-.392-1.988-.959-3.038-1.091-.013-.069-.054-.137-.068-.164 1.079-.035 2.521.527 2.681.6.421.191.48.427.425.655m-1.545.729c-.056-.142-.179-.601-.836-.979 1.385.43 2.445 1.263 2.768 1.551.74.66 1.116 1.645 1.099 1.646-.1-.091-1.505-1.845-3.031-2.218m1.204 3.774s.47-.008.637-.479c.499.222 1.059.458 1.422.854-.024.016-.348.124-.744.081-.237-.025-.758-.178-1.315-.456m-4.133-2.211c-.186-.136-1.957-1.537-2.242-1.783.048-.013.232-.05.455-.018.595.085 1.329.672 2.814 1.647-.179.012-.636.054-1.027.154m4.461 1.601s-.488.503-1.156.273c-.326-.113-2.595-1.383-2.968-1.592.059.005.65.035.969-.209.704.442 2.47 1.289 3.155 1.528m-4.218-3.927c-.026-.103-.086-.253-.178-.423 0 0 1.556.357 2.136.904.151.111.364.412.311.614 0 0-1.42-.8-2.269-1.095m3.557 2.387c.263.159.454.661.385.843-.004 0-2.666-1.435-2.689-1.452.001 0 .57-.292.605-.294.486.198 1.562.817 1.699.903m-3.415 6.079c-.04-.161.394-1.075.394-1.075.028.006.119.167.218.303-.182.107-.228.413-.21.453.207.111.498.03.692-.015l.02.235c-.325.094-.984.174-1.114.099m-.048.883c.03-.101.223-.513.607-.654l.269.047c-.112.093-.39.277-.458.472 0 0 .159.199.625.163l-.132.249c-.45-.015-.752-.134-.911-.277m-1.16-.499c.102-.036.275-.078.311-.078-.082.146-.187.507-.205.764.209.17.891.02.891.02.119.107.28.112.31.135-.162.119-.473.252-.746.252-.105 0-.43.029-.856-.179-.015-.622.226-.809.295-.914m.337-2.14c.177.034.454.101.454.101-.404.213-.766.682-.811 1.028.234.12.901.332 1.059.347-.257.304-1.056.205-1.461-.185.072-.69.547-1.113.759-1.291m-2.292.28c-.063-.103.246-1.099.389-1.202.044 0 .257-.021.315.004-.291.485-.343.589-.422 1.007 0 0 .967-.019 1.27-.133-.036.095-.128.208-.299.379 0 0-1.191.047-1.253-.055m-.745-.104c.044 0 .257-.021.315.004-.291.485-.342.589-.422 1.007 0 0 .967-.019 1.269-.133-.035.096-.127.208-.298.379 0 0-1.191.047-1.254-.055-.062-.102.247-1.098.39-1.202m-3.394-3.904s1.157-.73 1.258-.78c.143.215.362.494.319.524-.166.12-.576.415-1.236.773-.177.084-.802.332-1.16.327.222-.374.493-.605.819-.844m-.823-1.05.281.503c-.37.215-1.691 1.073-2.562 1.013.48-.74 1.826-1.322 2.281-1.516m-6.71-.639c.734-.233 2.704-1.152 3.867-1.815-.001.012.082.245.204.532.04.094-2.702 1.776-4.071 1.283m3.399.214s1.029-.634 1.2-.745c0 0-.512.752-.492.824-.14.074 2.15-1.114 2.375-1.243 0 0-.135.531-.136.573-1.369.704-1.21.62-2.547 1.301-.362.184-.877.088-.91.045-.034-.046.206-.525.51-.755m5.775 3.256c-.041.016-.599.293-.984.155.027-.363.125-.639.592-.933 0 0 .828-.53 1.111-.704 0 0 .062.293-.088.438-.002.003-.879.553-.879.553-.079.219.074.395.248.491m.046 2.711c-.175.091-1.276.678-2.728.545.599-.225 1.614-.609 2.438-1.037-.005-.009-.119-.163-.275-.251.147-.067 1.206-.585 1.373-.669.167-.083.565.146.565.146-.094.052-1.002.544-1.002.544.019.07.011.523-.371.722m4.438-4.393s.181-.179.374-.322c1.807 1.267 3.545 1.984 5.172 2.618.048.019.188.268.364.415-.065.022-.533.141-.571.127-1.779-.688-4.02-1.803-5.339-2.838m2.5 5.769c.059-.414.169-.775.215-.901 0 0 .306-.143.292-.114-.197.406-.159.826-.159.826s.303.111.812.103c-.02.089-.334.848-.327.955.028.044.618.032.618.032.04-.006-.076.255-.076.255s-.533.079-.888-.104c.088-.422.211-.787.267-.935-.343-.073-.671-.038-.754-.117m-.694-11.086c.135-.254.678-.227.678-.227 1.129 0 2.616.736 3.272 1.284.215.172.094.427.078.428-.072-.072-1.087-.967-1.958-1.123-.019.036-.034.155.008.271-.331-.093-2.087-.616-2.078-.633m2.137-1.072c1.673 0 2.474.843 2.737 1.253-.561-.333-1.427-.592-2.127-.767-.669-.167-1.401-.278-1.645-.326 0 0 .368-.16 1.035-.16m3.879 3.087c-.055-.021-.513-.263-.477-.573-.066-.052-.755-.341-1.056-.564-.085-.063-.254-.241-.321-.509 1.017.491 1.504.897 1.854 1.21-.037.114-.07.33 0 .436m-.464-2.404c.637.333.993 1.334 1.153 1.883-.635-.626-1.52-1.186-1.52-1.186l.267-.329c-.058-.037-.534-.384-.725-.486.026-.017.434-.011.825.118m-.527-1.92c.48.187 1.341 1.035 1.306 1.625-.073-.086-.88-.771-1.356-1.011zm1.735-.661c.094.155.179.3.258.487l-.063.624c0 .2-.009.467.016.686-.132-.219-.53-.642-.703-.756.046-.184.211-.79.492-1.041m.47 2.804c.095.609-.128 1.444-.144 1.445.036-.519-.451-1.651-.692-1.838.298-.175.574-.434.621-.466.091.116.171.613.215.859m1.588-1.006c.032.14.073.586.064.85-.024.676-.552 1.616-.55 1.61.274-1.254-.055-2.347-.055-2.347.007 0 .364.023.541-.113m2.184.696c-.045.162-.489.585-1.158 1.218.045-.062.323-1.122 1.289-2.065.016.004-.048.549-.131.847m-1.37-.274s.287-.729 1.696-1.059c-1.798 1.286-1.75 2.826-1.75 2.826-.247-.072-.122-1.339.054-1.767m-26.282 16.186c-.202 0-.36-.111-.363-.295-.001-.052.029-.135.068-.188.003.066.063.313.313.324-.055.065-.018.141-.018.159m-15.307-18.223c-.014.024-1.512.005-2.101-.036.03-.386.252-.837.865-.837 0 0 1.849.045 1.973.036-.055.42-.116.825-.737.837m45.867 2.121c.163.015.229.3.234.28 1.4-2.349 3.765-4.168 5.653-5.261-.214-.095-.448-.132-.656-.132-.78 0-1.405.46-1.473.49.042.079.033.621.061.671l-.245.204c-.112-.172-.643-.43-.914-.278-.11.045-1.106.765-1.15.794.119.196.303.534.415.751l-.35.328c-.16-.154-.674-.616-1.119-.298-.104.074-.379.282-.542.413 1.321-2.107 3.417-3.451 5.265-4.224-.343-.13-.641-.162-.872-.162-.946 0-2.053.679-2.053.679l.162.704s-.217.131-.224.148c-.169-.221-.431-.454-.805-.287-.14.074-.905.616-.947.652.065.063.19.735.246.818-.178-.05-.772-.404-1.193-.038-.325.266-.52.548-.919.979.316-.85 1.245-2.475 2.081-3.345-.39-.037-.929.073-1.31.426.087.069.379.529.379.529l-.14.18s-.72-.368-.983-.114c-.363.275-.659.719-.724.804l.444.677s-.563-.255-.738.039c-.176.295-.492.993-.58 1.237.171.118.615.426.615.426l-.098.303c-.117 0-.729.033-.818.036-.028.084-.221.536-.272.719 0-1.553.985-3.813 1.649-4.875-.346.054-.718.269-.996.567-.027.028.178.536.178.536s-.609-.174-.761.04c-.151.215-.382.669-.382.669l.581.472s-.082.266-.08.281c-.037.017-.787-.212-.946.154-.16.366-.413 1.241-.413 1.241s.71.131.97.231l-1.152.337c-.041.162-.11.404-.166.553 0 0-.015-.232-.013-.297 0-.963.5-3.103 1.004-3.946-.832.118-1.201.839-1.28.954.238.108.536.616.536.616s-.704-.293-.831.072c-.128.367-.212.639-.323 1.109-.111.469.586 1.091.586 1.091s-.745-.075-.796-.08c0 0-.119.421-.189.49 0 0 .047-.486.017-.837 0 0 .004-1.319-.374-1.326-.211-.004-.871.57-1.085 1.433-.155-.119-.656-.491-1.049-.638-.029-.015-.041-.022-.078-.007-.152.066-.593.57-.687.758-.39-.047-.556-.056-.749-.07-.977 0-1.034.227-1.064.307.008.147.179.312.206.35-.12-.029-.333-.039-.366-.036-.789 0-1.479.211-1.479.419 0 .072.167.24.289.38-.071-.006-.168-.008-.254-.008-.922 0-1.626.224-1.626.401 0 .075.751.563.784.65-.022.002-.503.026-.52.027-.12-.121-.196-.209-.248-.209-.628 0-.872.17-.872.273l.152.396-.309.041c-.031-.032-.211-.094-.333-.094-.301 0-.792.172-.973.45.052.151.353.433.376.453-.03 0-.112-.006-.272-.006-.612 0-.891.208-.976.274-.679-.768-2.645-3.117-3.988-4.487-2.267-2.312-4.065-2.494-10.401-2.494-5.523 0-9.295.493-12.554.493-6.9 0-9.062-1.157-10.67-2.488.276 1.314 1.837 2.395 2.447 2.679.537.251 1.701.913 2.936.913.969 0 1.636-.499 1.745-.487 0 0-.541 1.105-1.576 1.289-1.277.227-2.351.549-3.533.549-.469 0-1.897.121-2.163.091.281.474.88.961 2.832 1.008 1.981 0 3.067-.144 4.691-.43 1.218-.251 1.693-.804 1.693-.856.099.004 1.272.036 1.363.056-.237.533-.908 1.122-1.719 1.313-3.333.784-4.566.57-6.031.38.604.776 1.28.993 2.521 1.064 2.746 0 4.866-.841 5.038-.93.197.429.119.441.406.656-.558.335-3.53 1.222-5.7.99.427.735 1.276.789 1.724.872 1.492.166 2.609-.063 2.973-.107.591-.09 1.14-.382 1.283-.764.233-.06.532-.167.532-.167.214.501.421.737.94 1.024-.698.233-2.077.698-3.715.556.363.747 2.021.803 2.512.736.867-.112 1.267-.531 1.269-.824.061-.015.106-.018.175-.036.278 1.001 1.872 1.896 3.681 1.896.225 0 .759-.889.739-.914 0 0 2.585-.441 5.825-1.449.483-.15 1.572.006 1.572.037-.172.116-5.01 2.096-7.563 2.236.256.317.523.866 1.694 1.034.356.051.8.012 1.188.005-.044.077-.179.107-.483.287.409.461 2.002.482 2.697.197-.069-.009-1.173-.097-1.471-.312 2.688-.573 4.726-1.713 5.434-2.07 0 0 .108.799-.338 1.005-.698.412-2.992 1.361-4.218 1.807 0 .458.976 1.106 1.912 1.106.437 0 1.14-.08 1.472-.167-.214.251-.305.548-.285.72.125.349.51.498 1.281.498.521 0 .919-.184 1.313-.35.004.145-.024.472-.024.542 0 .356.453.383.639.383.393 0 .896-.12.985-.12.068 0 .079.091.096.203.008.051.039.25.052.338.038.218.324.228.578.228.5 0 1.318-.384 1.586-.384.014 0 .025 0 .034.003-.094.091-.176.262-.176.367 0 .229.261.403.617.403.145 0 .67-.052.688-.047-.131.083-.184.198-.793.198-.217 0-.421-.061-.877-.061-.271 0-.668.134-1.115.134-.637 0-1.178-.131-1.432-.183-.094-.027-.795-.228-1.004-.228-.078 0-.117.007-.143.014-.191-.138-.393-.219-.721-.217-.119-.115-.52-.183-.753-.195-.206-.148-.651-.296-1.102-.296.188.086.318.432.354.581.13-.042.492.083.658.231.338-.012.584.021.781.142.036.063.048.11-.017.24-.525-.106-2.256-.406-3.003-.595l-.026.282 3.023.532c.055-.108.927-.178 1.253-.135.042.006.096.002.138.027-.095.124-.514.244-.732.244-.119 0-5.901.026-5.901.026-.051 0-.065.236-.01.236l1.624.029s.178-.031.308.123l.754-.057-.149-.136c.13.004 2.54-.053 2.54-.053s.23.012.32.216l-5.433.471s-.125 1.019-.738 1.05c-.312.017-.605.028-.605.028.152-.267.499-1.023.499-1.023s-1.081.131-1.132.13c-.036.083-.185.358-.154.353.178-.03.513-.034.709-.064 0 0-.2.637-.629.629-.266-.005-1.6.051-1.704.045-.314-.018-.49-.402-.49-.631 0-.199.083-.264.196-.436-.02-.143-.266-.323-.266-.323-.046.05-.288.285-.288.767 0 .373.156.651.443.9 0 .759.599 1.601 1.501 1.601.367 0 .747-.059.913-.172 0 0 .318.403 1.038.403.355 0 .668-.204.772-.277 0 0 .037.04.155.04.314 0 .946-.322 1.18-.377.265-.061.768-.155.768-.155.161-.036.429-.138.535-.163.107-.025.332-.041.504-.088.112-.03.469-.174.673-.243.103-.037.162-.041.213-.041.052 0 .099.023.155.011.142-.073.344-.175.424-.187 0 0-.033.07.072.073.105.003.651-.227.67-.238.107-.022.672-.128.919-.175.203-.046.922-.211.922-.211.086-.019.237.171.298.215.075.055.239.082.283.152-.048.183-.365.063-.522.46-.014-.111-.06-.265-.299-.379-.036-.086-.149-.208-.35-.208-.282 0-.355.253-.335.324.074-.104.185-.137.24-.137.13 0 .192.107.216.187-.02.031-.056.043-.056.154 0 .12.035.237.104.302-.038.037-.107.035-.128.035-.063 0-.083-.21-.295-.21-.155 0-.214.119-.226.187-.021-.018-.063-.047-.078-.065.025-.119-.007-.286-.335-.273-.01-.03-.016-.066-.015-.121.016-.129.117-.214.223-.279-.353.062-.425.268-.425.43 0 .067.03.163.093.251-.066-.008-.141-.046-.247-.1-.067-.033-.145-.035-.145-.035-.024-.023-.045-.076-.04-.115.006-.071.013-.146.13-.253-.194.065-.324.221-.324.395 0 .263.098.447.486.566.074.023.18.049.234.112.035.035.08.113.08.167 0 .037-.024.094-.083.094-.13 0-.293-.104-.688-.332-.157-.09-.235-.25-.234-.371.001-.124.035-.213.062-.232-.109-.013-.353.125-.353.393 0 .157.033.236.051.272-.083-.023-.155-.005-.155-.005-.045-.046-.169-.201-.169-.341 0-.051-.008-.148.041-.252-.223.049-.279.285-.281.351-.001.059-.024.227.166.399-.047.033-.053.119-.02.194.026.089.094.242.21.313-.047.014-.092.024-.116.024-.115 0-.225-.092-.225-.229 0-.062.009-.136.04-.192-.169 0-.295.158-.295.308 0 .24.125.409.418.377.046.074.118.083.184.083.109 0 .207-.074.338-.078.208-.008.744-.033.788-.033.134 0 .224.048.387.048.051 0 .145-.028.196-.05.198-.089.609-.254.74-.254.545 0 .97-.225 1.057-.225.048 0 .157.036.061.104-.134.076-.399.138-.487.289.193-.027.727-.09 1.342-.09.143 0 .248.004.248.079-.052.041-.128.072-.204.157.031.04.455-.12.64-.12.077 0 1.051.058 1.937.058 1.716 0 1.668-.297 2.251-.297.55 0 1.393.254 3.319.254 4.562 0 8.382-1.379 12.4-1.749.072-.007.909-.061.974-.067.587-.051 1.205-.26 1.643-.26.622 0 .99.408 1.105.506.191.161.446.47.636.47.105 0 .242-.083.242-.276 0-.259-.132-.53-.165-.599.222.081.514.202.514.48 0 .103-.033.294-.082.412.423-.418.874-.878.874-1.598 0-.688-.634-1.123-.914-1.336-.272-.208-.744-.544-.809-.599-.12-.449-.851-1.072-1.407-1.344-1.845-.902-3.849-1.59-5.16-1.791-.015-.062-.016-.094-.016-.177 0-.517.232-.803.652-1.113 1.089-.748 5.768-3.888 6.77-4.627h.003c.182-.142.544-.489.708-.855.399-.933.579-1.471.579-1.471-.182.182-.384.345-.501.443-.078.592-.309.859-.46 1.056-.019-.017-.095-.079-.126-.1.196-.37.228-.954.225-1.093-.611.186-.819.644-.996 1.151-.037-.055-.155-.173-.249-.231.206-.64.82-1.23 1.359-1.311"/><path fill="#231f20" d="M55.4745 33.3764s.069-.049.066-.083c-.006-.063.024-.122-.004-.148 0 0-.043.082-.092.138-.039.043-.022.02-.07.07-.002.02.001.077.026.09z"/><path fill="#231f20" d="M53.7074 33.0688c.031-.014.068-.035.113-.035.052 0 .124.049.124.131 0 .102.043.255.247.255.099 0 .177-.049.245-.049.04 0 .079.024.121.081-.037.111-.201.225-.376.225-.292 0-.491-.194-.491-.454 0-.036.007-.092.017-.154m-.964-.093c-.065.016-.187.087-.269.093.042.016.076.033.161.024.094-.038.094-.038.175-.052l.351-.02c.059.001 0 .049.059.049.06 0 .108-.062.168-.062.059 0 .09.008.147.064 0 .276.055.737.655.737.238 0 .407-.142.482-.249.038.062.089.096.154.099.088.003.074-.142.164-.142.06 0 .116.078.176.078.059 0 .09-.062.149-.069 0 0-.029-.071-.119-.071-.122 0-.159-.12-.287-.12-.055 0-.113.025-.16.025-.083 0-.168-.187-.284-.286-.238-.201-.463-.26-.898-.26-.265 0-.506.06-.563.06-.168.002-.247-.068-.412-.068-.084 0-.183.013-.183.013.143.063.235.034.334.157"/><path fill="#231f20" d="M53.2215 33.5044c.061.07.179.13.248.159.036-.064.096-.059.094-.124-.064-.034-.099-.104-.171-.104-.071 0-.107.03-.171.069"/><path fill="#231f20" d="m53.5814 33.5727.007.123c.026.06.114.115.147.175l.18-.022c-.23-.129-.25-.206-.334-.276"/><path fill="#231f20" d="m56.1844 34.0522.038-.114-.14.057c-.107.067-.161.089-.163.228-.001.062.024.099.031.135.082-.169.123-.226.234-.306"/></svg>
