<?xml version="1.0" standalone="no"?>
<!DOCTYPE svg PUBLIC "-//W3C//DTD SVG 20010904//EN"
 "http://www.w3.org/TR/2001/REC-SVG-20010904/DTD/svg10.dtd">
<svg version="1.0" xmlns="http://www.w3.org/2000/svg"
 width="54.000000pt" height="62.000000pt" viewBox="0 0 54.000000 62.000000"
 preserveAspectRatio="xMidYMid meet">

<g transform="translate(0.000000,62.000000) scale(0.100000,-0.100000)"
fill="#0070E1" stroke="none">
<path d="M128 513 l-117 -86 50 -44 c57 -52 146 -182 183 -268 14 -33 25 -53
26 -45 0 21 52 127 88 179 l30 44 -31 44 c-38 57 -84 167 -93 221 -4 23 -9 42
-13 42 -3 0 -59 -39 -123 -87z"/>
<path d="M280 593 c0 -41 73 -215 112 -267 14 -17 18 -15 69 39 30 31 55 60
56 63 1 4 -39 36 -89 72 -124 88 -148 103 -148 93z"/>
<path d="M79 240 l-37 -38 24 -18 c13 -11 60 -53 105 -94 64 -58 80 -69 75
-50 -12 43 -84 184 -108 211 l-23 27 -36 -38z"/>
<path d="M373 228 c-29 -48 -77 -149 -88 -188 -8 -27 -1 -21 142 115 l53 49
-32 33 c-18 18 -35 33 -40 33 -4 0 -20 -19 -35 -42z"/>
</g>
</svg>
