<?xml version="1.0" encoding="utf-8"?><!-- Uploaded to: SVG Repo, www.svgrepo.com, Generator: SVG Repo Mixer Tools -->
<svg width="800px" height="800px" viewBox="0 0 32 32" fill="none" xmlns="http://www.w3.org/2000/svg">
<path d="M21.77 3.08992C20.6759 2.41324 19.4128 2.05981 18.1264 2.07042C16.84 2.08104 15.5828 2.45528 14.5 3.14992C12.4 4.54992 11.91 7.23992 11.5 9.61992C11.22 11.1199 10.93 12.6799 10.28 13.3399C9.94002 13.6699 9.20002 13.5699 8.11002 13.3399C6.84002 13.1099 5.26002 12.8199 3.97002 13.7699C2.97002 14.5099 2.35002 15.8299 2.09002 17.8299C1.85535 19.2461 1.93432 20.6965 2.32136 22.0787C2.7084 23.461 3.39408 24.7415 4.33002 25.8299C6.60002 28.4799 10.53 29.9999 15.06 29.9999C24.45 29.9999 30.06 23.3999 30.06 16.9999C30.06 11.8599 26.26 5.48992 21.77 3.08992Z" fill="#F9A825"/>
<path d="M7.85002 22.4199H7.76002C7.50502 22.3895 7.26136 22.2971 7.0504 22.1506C6.83944 22.0042 6.66763 21.8082 6.55002 21.5799C6.36835 21.2946 6.26202 20.9678 6.24099 20.6302C6.21996 20.2925 6.28491 19.9551 6.42977 19.6494C6.57462 19.3437 6.79465 19.0797 7.06927 18.8822C7.34389 18.6847 7.66413 18.56 8.00002 18.5199C8.24981 18.4651 8.50927 18.4729 8.75529 18.5427C9.00131 18.6125 9.22623 18.7421 9.41002 18.9199C9.63912 19.2328 9.76756 19.6079 9.77828 19.9956C9.789 20.3832 9.68148 20.7649 9.47002 21.0899C9.06002 21.9399 8.48002 22.4199 7.85002 22.4199Z" fill="#43A047"/>
<path d="M14 25.8399C13.6861 25.8353 13.3777 25.7568 13.0997 25.6109C12.8218 25.465 12.5821 25.2557 12.4 24.9999C12.2302 24.8078 12.1103 24.5769 12.051 24.3275C11.9917 24.078 11.9948 23.8178 12.06 23.5699C12.2201 23.2174 12.4839 22.9223 12.8163 22.7239C13.1488 22.5255 13.5338 22.4334 13.92 22.4599C14.3004 22.3771 14.697 22.4144 15.0553 22.5666C15.4135 22.7189 15.7157 22.9786 15.92 23.3099C16.0217 23.5453 16.0622 23.8026 16.0378 24.0579C16.0133 24.3132 15.9246 24.5581 15.78 24.7699C15.6097 25.0541 15.3737 25.2932 15.0918 25.4672C14.8099 25.6412 14.4904 25.745 14.16 25.7699L14 25.8399Z" fill="#039BE5"/>
<path d="M21.05 23.7599C20.7347 23.7594 20.4236 23.6876 20.14 23.5499C19.904 23.4511 19.6953 23.2968 19.5316 23.1C19.368 22.9033 19.2542 22.67 19.2 22.4199C19.1 21.7599 19.53 21.0999 20.39 20.5999C20.6945 20.3612 21.0649 20.2218 21.4512 20.2003C21.8374 20.1788 22.221 20.2764 22.55 20.4799C22.7417 20.6508 22.8891 20.8656 22.9797 21.106C23.0703 21.3463 23.1012 21.605 23.07 21.8599C23.0475 22.1922 22.9448 22.5141 22.7706 22.798C22.5965 23.0819 22.3561 23.3193 22.07 23.4899C21.7603 23.6696 21.4081 23.7628 21.05 23.7599Z" fill="#3949AB"/>
<path d="M19.19 10.89C18.8416 10.9316 18.4886 10.8694 18.1755 10.711C17.8623 10.5527 17.603 10.3053 17.43 9.99999C17.3339 9.76237 17.2982 9.50463 17.3261 9.24983C17.354 8.99504 17.4447 8.75114 17.59 8.53999C17.7529 8.23827 17.9906 7.9835 18.2803 7.80013C18.5701 7.61677 18.9021 7.51097 19.2445 7.49289C19.5869 7.47482 19.9282 7.54508 20.2356 7.69692C20.543 7.84877 20.8062 8.0771 21 8.35999C21.1673 8.55343 21.2849 8.78483 21.3424 9.03406C21.3999 9.28328 21.3956 9.54278 21.33 9.78999C21.12 10.43 20.44 10.79 19.45 10.88L19.19 10.89Z" fill="#E53935"/>
<path d="M23.44 17.17C23.3217 17.1688 23.204 17.152 23.09 17.12C22.45 16.93 22.09 16.26 21.95 15.28C21.8663 14.9038 21.8989 14.511 22.0435 14.1538C22.1882 13.7966 22.4381 13.4918 22.76 13.28C22.994 13.1783 23.2492 13.1352 23.5036 13.1543C23.758 13.1735 24.0039 13.2544 24.22 13.39C24.5206 13.5441 24.7773 13.7719 24.966 14.0521C25.1548 14.3323 25.2695 14.6557 25.2994 14.9922C25.3294 15.3287 25.2736 15.6673 25.1373 15.9764C25.001 16.2856 24.7887 16.5551 24.52 16.76C24.2193 17.0192 23.837 17.1644 23.44 17.17Z" fill="#8E24AA"/>
<path d="M15 19.9999C14.7348 19.9999 14.4804 19.8946 14.2929 19.707C14.1054 19.5195 14 19.2651 14 18.9999V16.9999C14 15.4299 15.2 15.0899 16.71 14.9999L16.44 14.8099C16.2357 14.6563 16.098 14.4302 16.0552 14.1782C16.0124 13.9262 16.0677 13.6674 16.2098 13.4549C16.3519 13.2424 16.57 13.0924 16.8192 13.0357C17.0685 12.979 17.33 13.0198 17.55 13.1499C20.01 14.7899 19.73 15.6899 19.63 16.0299C19.53 16.3699 19.13 16.9999 18 16.9999C17.332 16.9742 16.663 17.0043 16 17.0899V18.9999C16 19.2651 15.8946 19.5195 15.7071 19.707C15.5196 19.8946 15.2652 19.9999 15 19.9999Z" fill="#C62828"/>
<path d="M14.49 3.13993C12.39 4.53993 11.89 7.22993 11.49 9.60993C11.21 11.1199 10.93 12.6699 10.27 13.3299C9.94002 13.6599 9.20002 13.5599 8.11002 13.3299C6.84002 13.0999 5.26002 12.8199 3.96002 13.7599C2.96002 14.4999 2.35002 15.8199 2.09002 17.8199C1.85331 19.2353 1.93034 20.6855 2.31568 22.0678C2.70101 23.4502 3.38524 24.7311 4.32002 25.8199C6.59002 28.4699 10.51 29.9999 15 29.9999C15.31 29.9999 15.6 29.9999 15.9 29.9999V2.42993C15.4029 2.60834 14.9294 2.84677 14.49 3.13993Z" fill="#FBC02D"/>
<path d="M7.83002 22.4099H7.74002C7.48605 22.3763 7.24377 22.2825 7.03332 22.1364C6.82287 21.9903 6.65033 21.7961 6.53002 21.5699C6.34797 21.2832 6.24195 20.9548 6.22195 20.6157C6.20195 20.2767 6.26863 19.9381 6.41571 19.6319C6.56278 19.3258 6.78541 19.0621 7.0626 18.8658C7.33978 18.6695 7.66239 18.547 8.00002 18.5099C8.24987 18.4577 8.50865 18.4669 8.75421 18.5365C8.99976 18.6062 9.22478 18.7343 9.41002 18.9099C9.63911 19.2228 9.76756 19.598 9.77827 19.9856C9.78899 20.3732 9.68148 20.7549 9.47002 21.0799C9.34794 21.4325 9.12966 21.744 8.83984 21.979C8.55002 22.214 8.20023 22.3633 7.83002 22.4099Z" fill="#43A047"/>
<path d="M15.94 23.48V24.38C16.0348 24.0875 16.0348 23.7725 15.94 23.48Z" fill="#039BE5"/>
<path d="M15.9 23.34C15.6936 23.0108 15.3912 22.7528 15.0335 22.6008C14.6759 22.4488 14.2803 22.4102 13.9 22.49C13.5073 22.455 13.1134 22.5431 12.773 22.7419C12.4325 22.9408 12.1624 23.2407 12 23.6C11.9452 23.8467 11.9512 24.103 12.0174 24.3469C12.0836 24.5907 12.208 24.8149 12.38 25C12.572 25.2471 12.8175 25.4475 13.0981 25.5861C13.3787 25.7246 13.6871 25.7978 14 25.8H14.13C14.4621 25.7767 14.7837 25.6736 15.0674 25.4995C15.3512 25.3254 15.5888 25.0855 15.76 24.8C15.8367 24.6677 15.8971 24.5267 15.94 24.38V23.48C15.9327 23.4318 15.9193 23.3848 15.9 23.34Z" fill="#039BE5"/>
<path d="M13.94 17V19C13.94 19.2652 14.0454 19.5196 14.2329 19.7071C14.4204 19.8946 14.6748 20 14.94 20C15.2052 20 15.4596 19.8946 15.6471 19.7071C15.8346 19.5196 15.94 19.2652 15.94 19V15.12C14.78 15.28 13.94 15.72 13.94 17Z" fill="#F4511E"/>
<path d="M15 29.9299C10.47 29.9299 6.55001 28.4199 4.24001 25.7899C3.3076 24.6997 2.62487 23.4187 2.23966 22.0367C1.85445 20.6548 1.77607 19.2054 2.01001 17.7899C2.27001 15.7899 2.88001 14.4699 3.89001 13.7299C5.18001 12.7899 6.76001 13.0699 8.03001 13.2999C9.12001 13.4999 9.86001 13.5999 10.2 13.2999C10.85 12.6399 11.14 11.0899 11.42 9.57995C11.85 7.19995 12.35 4.50995 14.42 3.10995C15.505 2.3968 16.7708 2.00768 18.069 1.9882C19.3672 1.96871 20.6441 2.31968 21.75 2.99995C26.25 5.43995 30 11.7999 30 16.9299C30 23.3199 24.43 29.9299 15 29.9299ZM6.15001 15.0799C5.79547 15.0653 5.44541 15.1633 5.15001 15.3599C4.44077 16.0792 4.02993 17.0402 4.00001 18.0499C3.79594 19.1828 3.84714 20.347 4.14988 21.4576C4.45262 22.5682 4.99927 23.5973 5.75001 24.4699C7.67001 26.6699 11.05 27.9299 15 27.9299C23.14 27.9299 28 22.3299 28 16.9299C28 12.5299 24.62 6.85995 20.77 4.78995C19.9951 4.28477 19.09 4.0158 18.165 4.0158C17.24 4.0158 16.3349 4.28477 15.56 4.78995C14.16 5.70995 13.77 7.86995 13.38 9.94995C13.03 11.8399 12.7 13.6299 11.61 14.7199C10.52 15.8099 9.00001 15.5499 7.68001 15.3099C7.17711 15.1918 6.66542 15.1149 6.15001 15.0799Z" fill="#263238"/>
</svg>